<?xml version="1.0" encoding="utf-8" ?>
<svg xmlns="http://www.w3.org/2000/svg" xmlns:xlink="http://www.w3.org/1999/xlink" width="64" height="64">
	<path fill="#0575E6" transform="scale(0.125 0.125)" d="M258.062 89.622C246.071 88.7431 241.793 94.0131 234.171 101.795L116.095 219.835C110.859 225.091 93.9831 238.815 93.0168 245.923L92.9602 246.375C91.9825 253.854 95.6498 258.519 100.91 263.057L140.064 298.822C156.007 314.067 165.598 323.831 165.654 347.906L165.646 486.809L99.218 486.901L99.2357 358C99.2103 357.28 99.0989 356.471 98.6527 355.883L98.4762 355.661C93.2194 348.917 86.7134 343.045 80.4944 337.208L44.9018 304.485C28.7892 288.878 21.3491 266.095 23.3522 243.935C25.0548 225.099 33.8992 209.938 46.7867 196.718L178.763 64.2114C200.365 42.2908 219.562 23.0992 252.726 22.687C256.049 22.6644 259.437 22.5648 262.75 22.8197C297.179 25.4686 311.703 43.0055 333.637 65.0788L448.125 179.763C457.213 189.066 467.402 197.837 474.974 208.462C495.225 236.877 493.09 275.751 469.691 301.916C464.728 307.466 458.87 312.311 453.406 317.368L426.409 342.656C422.147 346.749 417.57 350.802 413.763 355.322C411.915 357.516 412.76 361.29 412.758 363.975L412.779 462.597C412.781 470.581 412.341 478.852 412.958 486.799L346.39 486.908L346.466 360.945C346.45 325.326 349.511 320.39 376.819 294.652L409.485 264.716C425.374 250.733 420.317 243.813 406.929 230.821L282.315 106.118C275.336 98.8848 268.822 90.5316 258.062 89.622Z"/>
	<path fill="#0575E6" transform="scale(0.125 0.125)" d="M256.875 486.815L233.667 486.824C230.084 486.824 226.156 487.157 222.628 486.746L222.942 238.327C221.767 240.373 218.783 242.747 217.027 244.555L185.423 275.76L137.35 236.168C139.576 234.852 141.487 233.059 143.382 231.315L246.221 127.842C248.922 125.097 251.876 121.397 255.135 119.375L255.612 119.306C256.87 119.276 259.736 122.007 260.661 122.855L344.58 207.153C354.469 217.053 364.143 227.476 374.779 236.577C372.578 238.958 369.95 240.892 367.4 242.88L326.377 275.864C323.513 271.743 318.899 268.184 315.292 264.652L291.267 240.905C290.485 240.23 289.812 239.99 289.264 239.063L289.367 486.818L256.875 486.815Z"/>
</svg>
